<svg xmlns="http://www.w3.org/2000/svg" width="87.032" height="32.13" viewBox="0 0 87.031502 32.130001"><path d="M3.738 30.996c0 .224-.084.42-.252.588a.806.806 0 0 1-.588.252H.882a.806.806 0 0 1-.588-.252.806.806 0 0 1-.252-.588V9.576c0-.224.084-.42.252-.588a.806.806 0 0 1 .588-.252h2.016c.224 0 .42.084.588.252a.806.806 0 0 1 .252.588zm24.321 0c0 .224-.084.42-.252.588a.806.806 0 0 1-.588.252h-2.016a.806.806 0 0 1-.588-.252.806.806 0 0 1-.252-.588V17.178c0-1.064-.098-1.946-.294-2.646-.168-.728-.448-1.302-.84-1.722-.364-.42-.84-.714-1.428-.882-.588-.196-1.274-.294-2.058-.294-.896 0-1.82.154-2.772.462-.952.308-1.918.7-2.898 1.176v17.724c0 .224-.084.42-.252.588a.806.806 0 0 1-.588.252h-2.058a.806.806 0 0 1-.588-.252.89.89 0 0 1-.21-.588V9.576c0-.224.07-.42.21-.588a.806.806 0 0 1 .588-.252h2.1c.224 0 .406.084.546.252a.806.806 0 0 1 .252.588v.798c1.176-.644 2.268-1.12 3.276-1.428 1.008-.336 2.142-.504 3.402-.504 2.548 0 4.396.756 5.544 2.268 1.176 1.512 1.764 3.668 1.764 6.468zm23.127-.546c0 .28-.056.504-.168.672-.084.14-.322.238-.714.294a38.493 38.493 0 0 1-3.906.546c-1.26.112-2.534.168-3.822.168-1.568 0-2.926-.238-4.074-.714-1.148-.504-2.1-1.204-2.856-2.1-.756-.896-1.316-1.988-1.68-3.276-.364-1.288-.546-2.716-.546-4.284v-3.024c0-3.304.756-5.838 2.268-7.602 1.512-1.792 3.808-2.688 6.888-2.688.644 0 1.414.042 2.31.126.924.056 1.792.154 2.604.294V1.05c0-.224.07-.406.21-.546a.806.806 0 0 1 .588-.252h2.142c.224 0 .406.084.546.252.14.14.21.322.21.546zM47.49 11.97c-.7-.14-1.526-.224-2.478-.252a84.768 84.768 0 0 0-2.436-.042c-1.036 0-1.904.154-2.604.462-.7.308-1.26.77-1.68 1.386-.42.588-.728 1.33-.924 2.226-.168.868-.252 1.862-.252 2.982v3.024c0 2.296.392 4.06 1.176 5.292.784 1.232 2.212 1.848 4.284 1.848.728 0 1.54-.028 2.436-.084.924-.056 1.75-.112 2.478-.168zm20.203-1.05c0 .476-.294.714-.882.714a9.8 9.8 0 0 0-2.857.42c-.895.252-1.875.7-2.94 1.344v17.598c0 .224-.083.42-.251.588a.806.806 0 0 1-.588.252h-2.058a.806.806 0 0 1-.588-.252.89.89 0 0 1-.21-.588V9.576c0-.224.07-.42.21-.588a.806.806 0 0 1 .587-.252h1.975c.223 0 .405.084.545.252a.806.806 0 0 1 .252.588v.882c1.065-.728 2.073-1.246 3.025-1.554a9.63 9.63 0 0 1 2.898-.462c.587 0 .881.252.881.756zm19.339 20.076c0 .224-.084.42-.252.588a.806.806 0 0 1-.588.252H84.26a.806.806 0 0 1-.588-.252.806.806 0 0 1-.252-.588v-.924a19.627 19.627 0 0 1-3.108 1.47 9.641 9.641 0 0 1-3.36.588c-.896 0-1.764-.098-2.604-.294a5.82 5.82 0 0 1-2.184-1.134c-.616-.532-1.12-1.232-1.512-2.1-.364-.868-.546-1.96-.546-3.276v-.504c0-1.12.168-2.1.504-2.94a4.936 4.936 0 0 1 1.722-2.142c.812-.588 1.862-1.022 3.15-1.302 1.288-.28 2.87-.42 4.746-.42h3.108v-1.68c0-1.764-.336-2.996-1.008-3.696-.672-.7-1.834-1.05-3.486-1.05-1.372 0-2.576.042-3.612.126a62.283 62.283 0 0 0-2.814.21h-.21c-.196 0-.378-.042-.546-.126-.14-.084-.21-.266-.21-.546v-1.47c0-.448.294-.714.882-.798.868-.14 1.806-.266 2.814-.378 1.036-.112 2.268-.168 3.696-.168 2.912 0 4.998.7 6.258 2.1 1.288 1.4 1.932 3.332 1.932 5.796zm-3.696-10.332h-3.108c-1.26 0-2.31.084-3.15.252-.84.14-1.499.378-1.975.714a2.488 2.488 0 0 0-1.007 1.26c-.197.504-.295 1.134-.295 1.89v.504c0 1.512.337 2.534 1.009 3.066.671.504 1.623.756 2.855.756.98 0 1.918-.14 2.814-.42.897-.28 1.849-.7 2.857-1.26z" fill="#fff"/></svg>