<svg xmlns="http://www.w3.org/2000/svg" width="75.114" height="31.878" viewBox="0 0 75.114197 31.877998"><path d="M29.82 9.492L25.746 28.98c-.14.672-.28 1.204-.42 1.596-.14.364-.336.644-.588.84-.252.196-.588.322-1.008.378-.392.056-.896.084-1.512.084-.56 0-1.022-.042-1.386-.126a1.961 1.961 0 0 1-.924-.378c-.252-.224-.462-.532-.63-.924-.168-.392-.336-.924-.504-1.596l-3.654-14.28a.967.967 0 0 0-.126-.252c0-.028-.028-.042-.084-.042-.056 0-.098.014-.126.042 0 .028-.028.112-.084.252l-3.654 14.28c-.168.616-.336 1.12-.504 1.512-.168.392-.378.7-.63.924-.252.224-.574.378-.966.462-.364.084-.812.126-1.344.126a11.46 11.46 0 0 1-1.554-.084c-.392-.056-.714-.182-.966-.378s-.448-.49-.588-.882c-.14-.392-.28-.91-.42-1.554L0 9.492v-.168c0-.224.07-.42.21-.588a.806.806 0 0 1 .588-.252h2.268c.196 0 .35.07.462.21.14.14.224.294.252.462l3.486 19.152c.056.252.112.406.168.462a.373.373 0 0 0 .168.042c.14 0 .252-.168.336-.504l4.116-16.128c.14-.476.336-.798.588-.966.28-.196.644-.294 1.092-.294h2.352c.448 0 .798.098 1.05.294.28.168.49.49.63.966l4.116 16.128c.084.336.196.504.336.504a.373.373 0 0 0 .168-.042c.056-.056.112-.21.168-.462L26.04 9.156a.991.991 0 0 1 .21-.462c.14-.14.308-.21.504-.21h2.268c.224 0 .406.084.546.252a.806.806 0 0 1 .252.588zm22.07 10.794c0 .616-.266.924-.798.924h-14.07v.588c0 2.492.49 4.256 1.47 5.292.98 1.036 2.436 1.554 4.368 1.554a64.05 64.05 0 0 0 3.906-.126c1.4-.084 2.59-.196 3.57-.336h.21c.168 0 .322.042.462.126.14.084.21.238.21.462v1.428c0 .28-.056.504-.168.672-.112.14-.336.238-.672.294a39.989 39.989 0 0 1-3.612.504 33.22 33.22 0 0 1-3.906.21c-1.204 0-2.38-.154-3.528-.462a8.325 8.325 0 0 1-3.066-1.638c-.868-.784-1.582-1.82-2.142-3.108-.532-1.288-.798-2.912-.798-4.872v-3.78c0-3.024.798-5.418 2.394-7.182 1.596-1.764 3.906-2.646 6.93-2.646 1.54 0 2.884.238 4.032.714 1.148.448 2.1 1.106 2.856 1.974.784.84 1.372 1.876 1.764 3.108.392 1.204.588 2.548.588 4.032zm-3.738-2.268c0-2.38-.462-4.074-1.386-5.082-.896-1.008-2.268-1.512-4.116-1.512-1.82 0-3.22.532-4.2 1.596-.952 1.064-1.428 2.73-1.428 4.998v.378h11.13zm26.962 3.486c0 1.568-.182 2.996-.546 4.284-.364 1.288-.924 2.38-1.68 3.276-.756.896-1.708 1.596-2.856 2.1-1.148.476-2.506.714-4.074.714-1.26 0-2.534-.056-3.822-.168a38.493 38.493 0 0 1-3.906-.546c-.392-.056-.644-.154-.756-.294-.084-.14-.126-.364-.126-.672V.798c0-.224.07-.406.21-.546A.677.677 0 0 1 58.104 0h2.142c.224 0 .406.084.546.252.168.14.252.322.252.546V8.61c.812-.14 1.666-.238 2.562-.294.896-.084 1.68-.126 2.352-.126 3.052 0 5.334.896 6.846 2.688 1.54 1.764 2.31 4.298 2.31 7.602zm-3.696-3.024c0-2.24-.406-3.976-1.218-5.208-.784-1.232-2.198-1.848-4.242-1.848-.336 0-.714.014-1.134.042-.42 0-.854.014-1.302.042-.448 0-.896.028-1.344.084-.42.028-.798.07-1.134.126v16.674c.728.056 1.54.112 2.436.168.924.056 1.75.084 2.478.084 2.072 0 3.5-.616 4.284-1.848.784-1.232 1.176-2.996 1.176-5.292z" fill="#ffc033"/></svg>